<?xml version="1.0" encoding="UTF-8" standalone="no"?>
<!DOCTYPE svg PUBLIC "-//W3C//DTD SVG 1.1//EN"
 "http://www.w3.org/Graphics/SVG/1.1/DTD/svg11.dtd">
<!-- Generated by graphviz version 2.44.1 (20200629.0846)
 -->
<!-- Title: g Pages: 1 -->
<svg width="620pt" height="391pt"
 viewBox="0.00 0.00 620.00 391.00" xmlns="http://www.w3.org/2000/svg" xmlns:xlink="http://www.w3.org/1999/xlink">
<g id="graph0" class="graph" transform="scale(1 1) rotate(0) translate(4 387)">
<title>g</title>
<polygon fill="white" stroke="transparent" points="-4,4 -4,-387 616,-387 616,4 -4,4"/>
<g id="clust3" class="cluster">
<title>cluster_2016134218</title>
<polygon fill="#ececec" stroke="black" points="213,-284.2 213,-375 381,-375 381,-284.2 213,-284.2"/>
<text text-anchor="middle" x="253.27" y="-358.4" font-family="Times New Roman,serif" font-size="14.00">CarOptions</text>
</g>
<g id="clust4" class="cluster">
<title>cluster_2089179250</title>
<polygon fill="#ececec" stroke="black" points="146,-117.8 146,-232.6 276,-232.6 276,-117.8 146,-117.8"/>
<text text-anchor="middle" x="184.33" y="-216" font-family="Times New Roman,serif" font-size="14.00">HiFiAudio</text>
</g>
<g id="clust1" class="cluster">
<title>cluster_1135471697</title>
<polygon fill="#ececec" stroke="black" points="186,-8 186,-98.8 310,-98.8 310,-8 186,-8"/>
<text text-anchor="middle" x="233.27" y="-82.2" font-family="Times New Roman,serif" font-size="14.00">CompactSUV</text>
</g>
<g id="clust2" class="cluster">
<title>cluster_191901440</title>
<polygon fill="#ececec" stroke="black" points="8,-117.8 8,-232.6 138,-232.6 138,-117.8 8,-117.8"/>
<text text-anchor="middle" x="38.55" y="-216" font-family="Times New Roman,serif" font-size="14.00">Sunroof</text>
</g>
<g id="clust7" class="cluster">
<title>cluster_80469239</title>
<polygon fill="#ececec" stroke="black" points="474,-117.8 474,-232.6 604,-232.6 604,-117.8 474,-117.8"/>
<text text-anchor="middle" x="520.88" y="-216" font-family="Times New Roman,serif" font-size="14.00">SportsWheels</text>
</g>
<g id="clust6" class="cluster">
<title>cluster_67508</title>
<polygon fill="#ececec" stroke="black" points="284,-117.8 284,-232.6 466,-232.6 466,-117.8 284,-117.8"/>
<text text-anchor="middle" x="302.11" y="-216" font-family="Times New Roman,serif" font-size="14.00">Car</text>
</g>
<g id="clust8" class="cluster">
<title>cluster_82484</title>
<polygon fill="#ececec" stroke="black" points="440,-8 440,-98.8 554,-98.8 554,-8 440,-8"/>
<text text-anchor="middle" x="462" y="-82.2" font-family="Times New Roman,serif" font-size="14.00">SUV</text>
</g>
<g id="clust5" class="cluster">
<title>cluster_246571490</title>
<polygon fill="#ececec" stroke="black" points="318,-8 318,-98.8 432,-98.8 432,-8 318,-8"/>
<text text-anchor="middle" x="352.83" y="-82.2" font-family="Times New Roman,serif" font-size="14.00">Economy</text>
</g>
<!-- CompactSUV1135471697 -->
<g id="node1" class="node">
<title>CompactSUV1135471697</title>
<polygon fill="#ffffff" stroke="transparent" points="301.5,-66 194.5,-66 194.5,-16 301.5,-16 301.5,-66"/>
<text text-anchor="start" x="199.9" y="-48.4" font-family="Times New Roman,serif" font-size="14.00">(C)CompactSUV</text>
<text text-anchor="start" x="200" y="-24.4" font-family="Times New Roman,serif" font-size="14.00">+ cost(): double</text>
<polygon fill="black" stroke="black" points="195,-41 195,-41 302,-41 302,-41 195,-41"/>
<polygon fill="none" stroke="black" points="194.5,-16 194.5,-66 301.5,-66 301.5,-16 194.5,-16"/>
</g>
<!-- Sunroof191901440 -->
<g id="node2" class="node">
<title>Sunroof191901440</title>
<polygon fill="#ffffff" stroke="transparent" points="129.5,-199.8 16.5,-199.8 16.5,-125.8 129.5,-125.8 129.5,-199.8"/>
<text text-anchor="start" x="22" y="-182.2" font-family="Times New Roman,serif" font-size="14.00">(C)Sunroof</text>
<text text-anchor="start" x="21.99" y="-158.2" font-family="Times New Roman,serif" font-size="14.00">&#45; &#160;&#160;cost: double [1]</text>
<text text-anchor="start" x="22" y="-134.2" font-family="Times New Roman,serif" font-size="14.00">+ cost(): double</text>
<polygon fill="black" stroke="black" points="17,-174.8 17,-174.8 130,-174.8 130,-174.8 17,-174.8"/>
<polygon fill="black" stroke="black" points="17,-150.8 17,-150.8 130,-150.8 130,-150.8 17,-150.8"/>
<polygon fill="none" stroke="black" points="16.5,-125.8 16.5,-199.8 129.5,-199.8 129.5,-125.8 16.5,-125.8"/>
</g>
<!-- CarOptions2016134218 -->
<g id="node3" class="node">
<title>CarOptions2016134218</title>
<polygon fill="#ffffff" stroke="transparent" points="372.5,-342.2 221.5,-342.2 221.5,-292.2 372.5,-292.2 372.5,-342.2"/>
<text text-anchor="start" x="227" y="-324.6" font-family="Times New Roman,serif" font-size="14.00">(C)CarOptions</text>
<text text-anchor="start" x="226.56" y="-300.6" font-family="Times New Roman,serif" font-size="14.00"># &#160;&#160;orderedCar: Car [0..1]</text>
<polygon fill="black" stroke="black" points="222,-317.2 222,-317.2 373,-317.2 373,-317.2 222,-317.2"/>
<polygon fill="none" stroke="black" points="221.5,-292.2 221.5,-342.2 372.5,-342.2 372.5,-292.2 221.5,-292.2"/>
</g>
<!-- CarOptions2016134218&#45;&gt;Sunroof191901440 -->
<g id="edge8" class="edge">
<title>CarOptions2016134218&#45;&gt;Sunroof191901440</title>
<path fill="none" stroke="black" d="M243.11,-287.13C198.36,-263 142,-232.6 142,-232.6 142,-232.6 125.81,-216.46 109.12,-199.81"/>
<polygon fill="none" stroke="black" points="241.7,-290.35 252.17,-292.02 245.03,-284.19 241.7,-290.35"/>
</g>
<!-- HiFiAudio2089179250 -->
<g id="node4" class="node">
<title>HiFiAudio2089179250</title>
<polygon fill="#ffffff" stroke="transparent" points="267.5,-199.8 154.5,-199.8 154.5,-125.8 267.5,-125.8 267.5,-199.8"/>
<text text-anchor="start" x="160" y="-182.2" font-family="Times New Roman,serif" font-size="14.00">(C)HiFiAudio</text>
<text text-anchor="start" x="159.99" y="-158.2" font-family="Times New Roman,serif" font-size="14.00">&#45; &#160;&#160;cost: double [1]</text>
<text text-anchor="start" x="160" y="-134.2" font-family="Times New Roman,serif" font-size="14.00">+ cost(): double</text>
<polygon fill="black" stroke="black" points="155,-174.8 155,-174.8 268,-174.8 268,-174.8 155,-174.8"/>
<polygon fill="black" stroke="black" points="155,-150.8 155,-150.8 268,-150.8 268,-150.8 155,-150.8"/>
<polygon fill="none" stroke="black" points="154.5,-125.8 154.5,-199.8 267.5,-199.8 267.5,-125.8 154.5,-125.8"/>
</g>
<!-- CarOptions2016134218&#45;&gt;HiFiAudio2089179250 -->
<g id="edge6" class="edge">
<title>CarOptions2016134218&#45;&gt;HiFiAudio2089179250</title>
<path fill="none" stroke="black" d="M278.34,-283.13C264.51,-258.63 245.69,-225.27 231.45,-200.04"/>
<polygon fill="none" stroke="black" points="275.41,-285.06 283.37,-292.05 281.51,-281.62 275.41,-285.06"/>
</g>
<!-- Car67508 -->
<g id="node6" class="node">
<title>Car67508</title>
<polygon fill="#ffffff" stroke="transparent" points="457.5,-199.8 292.5,-199.8 292.5,-125.8 457.5,-125.8 457.5,-199.8"/>
<text text-anchor="start" x="298" y="-182.2" font-family="Times New Roman,serif" font-size="14.00">(C)Car</text>
<text text-anchor="start" x="297.93" y="-158.2" font-family="Times New Roman,serif" font-size="14.00"># &#160;&#160;description: String [0..1]</text>
<text text-anchor="start" x="298" y="-134.2" font-family="Times New Roman,serif" font-size="14.00">+ cost(): double</text>
<polygon fill="black" stroke="black" points="293,-174.8 293,-174.8 458,-174.8 458,-174.8 293,-174.8"/>
<polygon fill="black" stroke="black" points="293,-150.8 293,-150.8 458,-150.8 458,-150.8 293,-150.8"/>
<polygon fill="none" stroke="black" points="292.5,-125.8 292.5,-199.8 457.5,-199.8 457.5,-125.8 292.5,-125.8"/>
</g>
<!-- CarOptions2016134218&#45;&gt;Car67508 -->
<g id="edge5" class="edge">
<title>CarOptions2016134218&#45;&gt;Car67508</title>
<path fill="none" stroke="black" d="M295.28,-291.77C294.63,-282.53 294.04,-274.2 294.04,-274.2 294.04,-274.2 294.04,-240.6 294.04,-240.6 294.04,-240.6 311.07,-224.44 329.51,-206.95"/>
<polygon fill="black" stroke="black" points="332.04,-209.37 336.89,-199.95 327.23,-204.29 332.04,-209.37"/>
<text text-anchor="middle" x="325.48" y="-261.6" font-family="Times New Roman,serif" font-size="14.00">orderedCar</text>
<text text-anchor="middle" x="325.48" y="-244.8" font-family="Times New Roman,serif" font-size="14.00">[0..1]</text>
</g>
<!-- SportsWheels80469239 -->
<g id="node7" class="node">
<title>SportsWheels80469239</title>
<polygon fill="#ffffff" stroke="transparent" points="595.5,-199.8 482.5,-199.8 482.5,-125.8 595.5,-125.8 595.5,-199.8"/>
<text text-anchor="start" x="488" y="-182.2" font-family="Times New Roman,serif" font-size="14.00">(C)SportsWheels</text>
<text text-anchor="start" x="487.99" y="-158.2" font-family="Times New Roman,serif" font-size="14.00">&#45; &#160;&#160;cost: double [1]</text>
<text text-anchor="start" x="488" y="-134.2" font-family="Times New Roman,serif" font-size="14.00">+ cost(): double</text>
<polygon fill="black" stroke="black" points="483,-174.8 483,-174.8 596,-174.8 596,-174.8 483,-174.8"/>
<polygon fill="black" stroke="black" points="483,-150.8 483,-150.8 596,-150.8 596,-150.8 483,-150.8"/>
<polygon fill="none" stroke="black" points="482.5,-125.8 482.5,-199.8 595.5,-199.8 595.5,-125.8 482.5,-125.8"/>
</g>
<!-- CarOptions2016134218&#45;&gt;SportsWheels80469239 -->
<g id="edge7" class="edge">
<title>CarOptions2016134218&#45;&gt;SportsWheels80469239</title>
<path fill="none" stroke="black" d="M356.22,-287.58C406.31,-263.38 470,-232.6 470,-232.6 470,-232.6 486.19,-216.46 502.88,-199.81"/>
<polygon fill="none" stroke="black" points="354.52,-284.52 347.04,-292.02 357.57,-290.82 354.52,-284.52"/>
</g>
<!-- Economy246571490 -->
<g id="node5" class="node">
<title>Economy246571490</title>
<polygon fill="#ffffff" stroke="transparent" points="424,-66 326,-66 326,-16 424,-16 424,-66"/>
<text text-anchor="start" x="331" y="-48.4" font-family="Times New Roman,serif" font-size="14.00">(C)Economy</text>
<text text-anchor="start" x="330.62" y="-24.4" font-family="Times New Roman,serif" font-size="14.00">+ cost(): double</text>
<polygon fill="black" stroke="black" points="326,-41 326,-41 424,-41 424,-41 326,-41"/>
<polygon fill="none" stroke="black" points="326,-16 326,-66 424,-66 424,-16 326,-16"/>
</g>
<!-- Car67508&#45;&gt;CompactSUV1135471697 -->
<g id="edge2" class="edge">
<title>Car67508&#45;&gt;CompactSUV1135471697</title>
<path fill="none" stroke="black" d="M329.21,-118.61C310.44,-100.9 289.43,-81.08 273.48,-66.03"/>
<polygon fill="none" stroke="black" points="326.88,-121.22 336.55,-125.53 331.68,-116.12 326.88,-121.22"/>
</g>
<!-- Car67508&#45;&gt;CarOptions2016134218 -->
<g id="edge1" class="edge">
<title>Car67508&#45;&gt;CarOptions2016134218</title>
<path fill="none" stroke="black" d="M369.14,-210.01C365.3,-240.25 361,-274.2 361,-274.2 361,-274.2 348.08,-282.68 333.86,-292.01"/>
<polygon fill="none" stroke="black" points="372.63,-210.31 370.42,-199.95 365.69,-209.43 372.63,-210.31"/>
</g>
<!-- Car67508&#45;&gt;Economy246571490 -->
<g id="edge3" class="edge">
<title>Car67508&#45;&gt;Economy246571490</title>
<path fill="none" stroke="black" d="M375,-115.29C375,-98.46 375,-80.14 375,-66.03"/>
<polygon fill="none" stroke="black" points="371.5,-115.53 375,-125.53 378.5,-115.53 371.5,-115.53"/>
</g>
<!-- SUV82484 -->
<g id="node8" class="node">
<title>SUV82484</title>
<polygon fill="#ffffff" stroke="transparent" points="546,-66 448,-66 448,-16 546,-16 546,-66"/>
<text text-anchor="start" x="453" y="-48.4" font-family="Times New Roman,serif" font-size="14.00">(C)SUV</text>
<text text-anchor="start" x="452.62" y="-24.4" font-family="Times New Roman,serif" font-size="14.00">+ cost(): double</text>
<polygon fill="black" stroke="black" points="448,-41 448,-41 546,-41 546,-41 448,-41"/>
<polygon fill="none" stroke="black" points="448,-16 448,-66 546,-66 546,-16 448,-16"/>
</g>
<!-- Car67508&#45;&gt;SUV82484 -->
<g id="edge4" class="edge">
<title>Car67508&#45;&gt;SUV82484</title>
<path fill="none" stroke="black" d="M419.46,-118.14C437.37,-100.55 457.34,-80.94 472.53,-66.03"/>
<polygon fill="none" stroke="black" points="416.62,-116.03 411.94,-125.53 421.52,-121.02 416.62,-116.03"/>
</g>
</g>
</svg>
